<svg version="1.1" xmlns="http://www.w3.org/2000/svg" viewBox="0 0 1289.13 1487.23">   <!-- svg-source:excalidraw -->      <defs>     <style class="style-fonts">       @font-face {         font-family: "Virgil";         src: url("https://excalidraw.com/Virgil.woff2");       }       @font-face {         font-family: "Cascadia";         src: url("https://excalidraw.com/Cascadia.woff2");       }       @font-face {         font-family: "Assistant";         src: url("https://excalidraw.com/Assistant-Regular.woff2");       }     </style>        </defs>   <rect x="0" y="0" width="1289.1279285344367" height="1487.2305706476916" fill="#ffffff"/><g stroke-linecap="round" transform="translate(10 157.18459150728063) rotate(0 164.47398354932466 305.409651850309)"><path d="M0 0 C101.09 0, 202.18 0, 328.95 0 M0 0 C129.16 0, 258.32 0, 328.95 0 M328.95 0 C328.95 223.93, 328.95 447.86, 328.95 610.82 M328.95 0 C328.95 200.57, 328.95 401.13, 328.95 610.82 M328.95 610.82 C215.94 610.82, 102.94 610.82, 0 610.82 M328.95 610.82 C216.22 610.82, 103.49 610.82, 0 610.82 M0 610.82 C0 459.76, 0 308.69, 0 0 M0 610.82 C0 472.48, 0 334.15, 0 0" stroke="#1e1e1e" stroke-width="1" fill="none"/></g><g transform="translate(43.8745553196452 174.15925107936437) rotate(0 98.42466735839844 280.15307292381823)"><text x="0" y="0" font-family="Virgil, Segoe UI Emoji" font-size="29.882994445207277px" fill="#1e1e1e" text-anchor="start" style="white-space: pre;" direction="ltr" dominant-baseline="text-before-edge">List item 1</text><text x="0" y="37.353743056509096" font-family="Virgil, Segoe UI Emoji" font-size="29.882994445207277px" fill="#1e1e1e" text-anchor="start" style="white-space: pre;" direction="ltr" dominant-baseline="text-before-edge">List item 2</text><text x="0" y="74.70748611301819" font-family="Virgil, Segoe UI Emoji" font-size="29.882994445207277px" fill="#1e1e1e" text-anchor="start" style="white-space: pre;" direction="ltr" dominant-baseline="text-before-edge">List item 2.1</text><text x="0" y="112.06122916952728" font-family="Virgil, Segoe UI Emoji" font-size="29.882994445207277px" fill="#1e1e1e" text-anchor="start" style="white-space: pre;" direction="ltr" dominant-baseline="text-before-edge">List item 2.2</text><text x="0" y="149.41497222603638" font-family="Virgil, Segoe UI Emoji" font-size="29.882994445207277px" fill="#1e1e1e" text-anchor="start" style="white-space: pre;" direction="ltr" dominant-baseline="text-before-edge">List item 3</text><text x="0" y="186.7687152825455" font-family="Virgil, Segoe UI Emoji" font-size="29.882994445207277px" fill="#1e1e1e" text-anchor="start" style="white-space: pre;" direction="ltr" dominant-baseline="text-before-edge">List item 4</text><text x="0" y="224.12245833905456" font-family="Virgil, Segoe UI Emoji" font-size="29.882994445207277px" fill="#1e1e1e" text-anchor="start" style="white-space: pre;" direction="ltr" dominant-baseline="text-before-edge">List item 4.1</text><text x="0" y="261.4762013955637" font-family="Virgil, Segoe UI Emoji" font-size="29.882994445207277px" fill="#1e1e1e" text-anchor="start" style="white-space: pre;" direction="ltr" dominant-baseline="text-before-edge">List item 4.2</text><text x="0" y="298.82994445207277" font-family="Virgil, Segoe UI Emoji" font-size="29.882994445207277px" fill="#1e1e1e" text-anchor="start" style="white-space: pre;" direction="ltr" dominant-baseline="text-before-edge">List item 5</text><text x="0" y="336.18368750858184" font-family="Virgil, Segoe UI Emoji" font-size="29.882994445207277px" fill="#1e1e1e" text-anchor="start" style="white-space: pre;" direction="ltr" dominant-baseline="text-before-edge">List item 6</text><text x="0" y="373.537430565091" font-family="Virgil, Segoe UI Emoji" font-size="29.882994445207277px" fill="#1e1e1e" text-anchor="start" style="white-space: pre;" direction="ltr" dominant-baseline="text-before-edge">List item 6.1</text><text x="0" y="410.89117362160005" font-family="Virgil, Segoe UI Emoji" font-size="29.882994445207277px" fill="#1e1e1e" text-anchor="start" style="white-space: pre;" direction="ltr" dominant-baseline="text-before-edge">List item 6.2</text><text x="0" y="448.2449166781091" font-family="Virgil, Segoe UI Emoji" font-size="29.882994445207277px" fill="#1e1e1e" text-anchor="start" style="white-space: pre;" direction="ltr" dominant-baseline="text-before-edge">List item 6.3</text><text x="0" y="485.59865973461825" font-family="Virgil, Segoe UI Emoji" font-size="29.882994445207277px" fill="#1e1e1e" text-anchor="start" style="white-space: pre;" direction="ltr" dominant-baseline="text-before-edge">List item 7</text><text x="0" y="522.9524027911274" font-family="Virgil, Segoe UI Emoji" font-size="29.882994445207277px" fill="#1e1e1e" text-anchor="start" style="white-space: pre;" direction="ltr" dominant-baseline="text-before-edge">List item 8</text></g><g transform="translate(20.312391275155278 33.08026799205879) rotate(0 69.78736114501953 22.5)"><text x="0" y="0" font-family="Virgil, Segoe UI Emoji" font-size="36px" fill="#343a40" text-anchor="start" style="white-space: pre;" direction="ltr" dominant-baseline="text-before-edge">Default</text></g><g stroke-linecap="round"><g transform="translate(169.94450436007946 82.5846798093199) rotate(0 35.6619465758057 24.963825350160896)"><path d="M0 0 C10.24 2.52, 49.58 6.79, 61.46 15.11 C73.35 23.43, 69.68 44.13, 71.32 49.93 M0 0 C10.24 2.52, 49.58 6.79, 61.46 15.11 C73.35 23.43, 69.68 44.13, 71.32 49.93" stroke="#343a40" stroke-width="1" fill="none"/></g><g transform="translate(169.94450436007946 82.5846798093199) rotate(0 35.6619465758057 24.963825350160896)"><path d="M63.94 33.41 C66.73 39.65, 69.52 45.89, 71.32 49.93 M63.94 33.41 C66.67 39.52, 69.4 45.62, 71.32 49.93" stroke="#343a40" stroke-width="1" fill="none"/></g><g transform="translate(169.94450436007946 82.5846798093199) rotate(0 35.6619465758057 24.963825350160896)"><path d="M76.28 32.53 C74.41 39.1, 72.54 45.67, 71.32 49.93 M76.28 32.53 C74.45 38.96, 72.62 45.39, 71.32 49.93" stroke="#343a40" stroke-width="1" fill="none"/></g></g><mask/><g stroke-opacity="0.4" fill-opacity="0.4" stroke-linecap="round" transform="translate(405.50711440823216 1003.8747614535491) rotate(0 111.02411338893808 36.637532459903355)"><path d="M0 0 C44.86 0, 89.71 0, 222.05 0 M0 0 C74.1 0, 148.2 0, 222.05 0 M222.05 0 C222.05 23.81, 222.05 47.62, 222.05 73.28 M222.05 0 C222.05 26.88, 222.05 53.77, 222.05 73.28 M222.05 73.28 C139.5 73.28, 56.96 73.28, 0 73.28 M222.05 73.28 C143.29 73.28, 64.54 73.28, 0 73.28 M0 73.28 C0 53.08, 0 32.89, 0 0 M0 73.28 C0 52.4, 0 31.52, 0 0" stroke="#1e1e1e" stroke-width="1" fill="none"/></g><g transform="translate(442.55526038994367 1023.0122939134526) rotate(0 73.97596740722656 17.5)"><text x="73.97596740722656" y="0" font-family="Virgil, Segoe UI Emoji" font-size="28px" fill="#343a40" text-anchor="middle" style="white-space: pre;" direction="ltr" dominant-baseline="text-before-edge">Open/Close</text></g><g transform="translate(334.9900013332092 876.0333196566313) rotate(0 61.27197265625 22.5)"><text x="0" y="0" font-family="Virgil, Segoe UI Emoji" font-size="36px" fill="#343a40" text-anchor="start" style="white-space: pre;" direction="ltr" dominant-baseline="text-before-edge">Fly-out</text></g><g stroke-linecap="round" transform="translate(486.76325781828723 1086.59610409542) rotate(0 32.35123720233935 32.35123720233935)"><path d="M33 0 C40.48 7.79, 47.97 15.58, 64.7 33 M33 0 C45.27 12.77, 57.53 25.54, 64.7 33 M64.7 33 C54.24 43.46, 43.79 53.92, 33 64.7 M64.7 33 C56.64 41.06, 48.59 49.12, 33 64.7 M33 64.7 C21.68 53.82, 10.35 42.94, 0 33 M33 64.7 C25.78 57.77, 18.57 50.84, 0 33 M0 33 C8.14 24.86, 16.28 16.72, 33 0 M0 33 C12.46 20.54, 24.91 8.09, 33 0" stroke="#343a40" stroke-width="1" fill="none"/></g><g stroke-linecap="round" transform="translate(353.13858241732055 1116.1341902366867) rotate(0 173.71207802125684 180.54819020550246)"><path d="M0 0 L347.42 0 L347.42 361.1 L0 361.1" stroke="none" stroke-width="0" fill="#ffffff"/><path d="M0 0 C83.36 0, 166.72 0, 347.42 0 M0 0 C71.89 0, 143.79 0, 347.42 0 M347.42 0 C347.42 117.53, 347.42 235.05, 347.42 361.1 M347.42 0 C347.42 106.68, 347.42 213.37, 347.42 361.1 M347.42 361.1 C270.58 361.1, 193.74 361.1, 0 361.1 M347.42 361.1 C209.63 361.1, 71.83 361.1, 0 361.1 M0 361.1 C0 261.64, 0 162.18, 0 0 M0 361.1 C0 284.3, 0 207.5, 0 0" stroke="#343a40" stroke-width="1" fill="none"/></g><g transform="translate(387.77310228612623 1146.2352220207083) rotate(0 84.48565673828125 149.4149722260364)"><text x="0" y="0" font-family="Virgil, Segoe UI Emoji" font-size="29.882994445207277px" fill="#1e1e1e" text-anchor="start" style="white-space: pre;" direction="ltr" dominant-baseline="text-before-edge">List item 1</text><text x="0" y="37.353743056509096" font-family="Virgil, Segoe UI Emoji" font-size="29.882994445207277px" fill="#1e1e1e" text-anchor="start" style="white-space: pre;" direction="ltr" dominant-baseline="text-before-edge">List item 2</text><text x="0" y="74.70748611301819" font-family="Virgil, Segoe UI Emoji" font-size="29.882994445207277px" fill="#1e1e1e" text-anchor="start" style="white-space: pre;" direction="ltr" dominant-baseline="text-before-edge">List item 3</text><text x="0" y="112.06122916952728" font-family="Virgil, Segoe UI Emoji" font-size="29.882994445207277px" fill="#1e1e1e" text-anchor="start" style="white-space: pre;" direction="ltr" dominant-baseline="text-before-edge">List item 4</text><text x="0" y="149.41497222603638" font-family="Virgil, Segoe UI Emoji" font-size="29.882994445207277px" fill="#1e1e1e" text-anchor="start" style="white-space: pre;" direction="ltr" dominant-baseline="text-before-edge">List item 5</text><text x="0" y="186.7687152825455" font-family="Virgil, Segoe UI Emoji" font-size="29.882994445207277px" fill="#1e1e1e" text-anchor="start" style="white-space: pre;" direction="ltr" dominant-baseline="text-before-edge">List item 6</text><text x="0" y="224.12245833905456" font-family="Virgil, Segoe UI Emoji" font-size="29.882994445207277px" fill="#1e1e1e" text-anchor="start" style="white-space: pre;" direction="ltr" dominant-baseline="text-before-edge">List item 7</text><text x="0" y="261.4762013955637" font-family="Virgil, Segoe UI Emoji" font-size="29.882994445207277px" fill="#1e1e1e" text-anchor="start" style="white-space: pre;" direction="ltr" dominant-baseline="text-before-edge">List item 8</text></g><g stroke-linecap="round" transform="translate(700.1826268043815 1182.6859580983364) rotate(0 140.9808618220079 78.55636582863713)"><path d="M0 0 L281.96 0 L281.96 157.11 L0 157.11" stroke="none" stroke-width="0" fill="#ffffff"/><path d="M0 0 C97.38 0, 194.75 0, 281.96 0 M0 0 C86.66 0, 173.32 0, 281.96 0 M281.96 0 C281.96 50.24, 281.96 100.48, 281.96 157.11 M281.96 0 C281.96 49.2, 281.96 98.4, 281.96 157.11 M281.96 157.11 C179.29 157.11, 76.61 157.11, 0 157.11 M281.96 157.11 C177.39 157.11, 72.81 157.11, 0 157.11 M0 157.11 C0 95.31, 0 33.51, 0 0 M0 157.11 C0 115.33, 0 73.55, 0 0" stroke="#343a40" stroke-width="1" fill="none"/></g><g transform="translate(731.0474907323526 1205.0207353028263) rotate(0 86.0579605102539 17.5)"><text x="0" y="0" font-family="Virgil, Segoe UI Emoji" font-size="28px" fill="#343a40" text-anchor="start" style="white-space: pre;" direction="ltr" dominant-baseline="text-before-edge">List item 2.1</text></g><g stroke-linecap="round"><g transform="translate(631.6336620467662 1193.1286670157467) rotate(0 9.440495618952696 8.159383568138537)"><path d="M0 0 C3.41 5.9, 6.82 11.81, 9.43 16.34 M0 0 C1.99 3.45, 3.98 6.9, 9.43 16.34 M9.43 16.34 C11.98 11.93, 14.53 7.51, 18.88 -0.02 M9.43 16.34 C12.93 10.29, 16.42 4.23, 18.88 -0.02" stroke="#343a40" stroke-width="4" fill="none"/></g></g><mask/><g stroke-linecap="round"><g transform="translate(633.0420856683661 1267.3922901567778) rotate(0 9.440495618952696 8.159383568138537)"><path d="M0 0 C2.14 3.7, 4.28 7.41, 9.43 16.34 M0 0 C2.54 4.39, 5.07 8.79, 9.43 16.34 M9.43 16.34 C12.33 11.33, 15.22 6.32, 18.88 -0.02 M9.43 16.34 C11.71 12.4, 13.99 8.45, 18.88 -0.02" stroke="#343a40" stroke-width="4" fill="none"/></g></g><mask/><g stroke-linecap="round"><g transform="translate(632.9215738990476 1338.8274945448482) rotate(0 9.440495618952696 8.159383568138537)"><path d="M0 0 C3.7 6.41, 7.4 12.82, 9.43 16.34 M0 0 C2.13 3.69, 4.26 7.37, 9.43 16.34 M9.43 16.34 C12.47 11.08, 15.51 5.82, 18.88 -0.02 M9.43 16.34 C12.95 10.25, 16.46 4.17, 18.88 -0.02" stroke="#343a40" stroke-width="4" fill="none"/></g></g><mask/><g stroke-linecap="round"><g transform="translate(935.136105493634 1296.64335239076) rotate(0 9.440495618952696 8.159383568138537)"><path d="M0 0 C2.4 4.15, 4.79 8.3, 9.43 16.34 M0 0 C2.22 3.84, 4.43 7.68, 9.43 16.34 M9.43 16.34 C12.07 11.78, 14.7 7.21, 18.88 -0.02 M9.43 16.34 C12.68 10.71, 15.93 5.08, 18.88 -0.02" stroke="#343a40" stroke-width="4" fill="none"/></g></g><mask/><g transform="translate(730.0050168695263 1286.3027359588984) rotate(0 92.2319564819336 17.5)"><text x="0" y="0" font-family="Virgil, Segoe UI Emoji" font-size="28px" fill="#343a40" text-anchor="start" style="white-space: pre;" direction="ltr" dominant-baseline="text-before-edge">List item 2.2</text></g><g stroke-linecap="round" transform="translate(982.9588716733024 1262.1725553096041) rotate(0 140.9808618220079 38.84964453774501)"><path d="M0 0 L281.96 0 L281.96 77.7 L0 77.7" stroke="none" stroke-width="0" fill="#ffffff"/><path d="M0 0 C85.59 0, 171.18 0, 281.96 0 M0 0 C97.86 0, 195.71 0, 281.96 0 M281.96 0 C281.96 25.56, 281.96 51.12, 281.96 77.7 M281.96 0 C281.96 22.35, 281.96 44.69, 281.96 77.7 M281.96 77.7 C191.37 77.7, 100.78 77.7, 0 77.7 M281.96 77.7 C223.43 77.7, 164.91 77.7, 0 77.7 M0 77.7 C0 51.08, 0 24.46, 0 0 M0 77.7 C0 60.95, 0 44.21, 0 0" stroke="#343a40" stroke-width="1" fill="none"/></g><g transform="translate(1014.0007256268977 1284.5953544768327) rotate(0 99.86195373535156 17.5)"><text x="0" y="0" font-family="Virgil, Segoe UI Emoji" font-size="28px" fill="#343a40" text-anchor="start" style="white-space: pre;" direction="ltr" dominant-baseline="text-before-edge">List item 2.2.1</text></g><g stroke-linecap="round"><g transform="translate(461.7255290817218 926.6414736081306) rotate(0 67.03790872435229 32.24133350984357)"><path d="M0 0 C19.84 0.37, 96.71 -1.35, 119.05 2.24 C141.4 5.83, 133.18 11.18, 134.08 21.56 C134.97 31.93, 126.03 57.33, 124.42 64.48 M0 0 C19.84 0.37, 96.71 -1.35, 119.05 2.24 C141.4 5.83, 133.18 11.18, 134.08 21.56 C134.97 31.93, 126.03 57.33, 124.42 64.48" stroke="#343a40" stroke-width="1" fill="none"/></g><g transform="translate(461.7255290817218 926.6414736081306) rotate(0 67.03790872435229 32.24133350984357)"><path d="M122.81 42.54 C123.4 50.54, 123.98 58.54, 124.42 64.48 M122.81 42.54 C123.35 49.86, 123.88 57.17, 124.42 64.48" stroke="#343a40" stroke-width="1" fill="none"/></g><g transform="translate(461.7255290817218 926.6414736081306) rotate(0 67.03790872435229 32.24133350984357)"><path d="M137.29 46.64 C132.6 53.15, 127.9 59.65, 124.42 64.48 M137.29 46.64 C133 52.59, 128.71 58.54, 124.42 64.48" stroke="#343a40" stroke-width="1" fill="none"/></g></g><mask/><g transform="translate(491.4057433175635 10) rotate(0 80.15397644042969 22.5)"><text x="0" y="0" font-family="Virgil, Segoe UI Emoji" font-size="36px" fill="#343a40" text-anchor="start" style="white-space: pre;" direction="ltr" dominant-baseline="text-before-edge">Accordion</text></g><g stroke-linecap="round" transform="translate(517.2388725004716 149.17120508481435) rotate(0 164.47398354932466 305.409651850309)"><path d="M0 0 C104.42 0, 208.84 0, 328.95 0 M0 0 C100.89 0, 201.79 0, 328.95 0 M328.95 0 C328.95 230.19, 328.95 460.38, 328.95 610.82 M328.95 0 C328.95 156.04, 328.95 312.09, 328.95 610.82 M328.95 610.82 C242.41 610.82, 155.87 610.82, 0 610.82 M328.95 610.82 C198.29 610.82, 67.63 610.82, 0 610.82 M0 610.82 C0 466.24, 0 321.67, 0 0 M0 610.82 C0 427.87, 0 244.92, 0 0" stroke="#1e1e1e" stroke-width="1" fill="none"/></g><g stroke-opacity="0.5" fill-opacity="0.5" stroke-linecap="round" transform="translate(516.3064724786061 309.7976407113422) rotate(0 164.02700520771077 134.1719290521412)"><path d="M0 0 C105.98 0, 211.96 0, 328.05 0 M0 0 C111.84 0, 223.69 0, 328.05 0 M328.05 0 C328.05 58.82, 328.05 117.65, 328.05 268.34 M328.05 0 C328.05 70.43, 328.05 140.87, 328.05 268.34 M328.05 268.34 C251.7 268.34, 175.34 268.34, 0 268.34 M328.05 268.34 C256.18 268.34, 184.31 268.34, 0 268.34 M0 268.34 C0 181.46, 0 94.57, 0 0 M0 268.34 C0 184.71, 0 101.08, 0 0" stroke="#1e1e1e" stroke-width="2" fill="none"/></g><g transform="translate(536.6076739309974 162.95908193410753) rotate(0 92.89796447753906 22.5)"><text x="0" y="0" font-family="Virgil, Segoe UI Emoji" font-size="36px" fill="#343a40" text-anchor="start" style="white-space: pre;" direction="ltr" dominant-baseline="text-before-edge">List item 1</text></g><g transform="translate(535.3361670520183 243.3892195136873) rotate(0 100.8359603881836 22.5)"><text x="0" y="0" font-family="Virgil, Segoe UI Emoji" font-size="36px" fill="#343a40" text-anchor="start" style="white-space: pre;" direction="ltr" dominant-baseline="text-before-edge">List item 2</text></g><g transform="translate(548.2520104562116 603.5545542156008) rotate(0 97.70396423339844 22.5)"><text x="0" y="0" font-family="Virgil, Segoe UI Emoji" font-size="36px" fill="#343a40" text-anchor="start" style="white-space: pre;" direction="ltr" dominant-baseline="text-before-edge">List item 7</text></g><g transform="translate(541.8944760613169 695.4282537059914) rotate(0 101.78996276855469 22.5)"><text x="0" y="0" font-family="Virgil, Segoe UI Emoji" font-size="36px" fill="#343a40" text-anchor="start" style="white-space: pre;" direction="ltr" dominant-baseline="text-before-edge">List item 8</text></g><g stroke-linecap="round"><g stroke-opacity="0.5" fill-opacity="0.5" transform="translate(515.8391124429472 306.78374331305554) rotate(0 164.6601408277793 0)"><path d="M0 0 C111.98 0, 223.95 0, 329.32 0 M0 0 C105.73 0, 211.46 0, 329.32 0" stroke="#343a40" stroke-width="2" fill="none"/></g></g><mask/><g stroke-linecap="round"><g stroke-opacity="0.5" fill-opacity="0.5" transform="translate(520.9251399588629 221.5927824214632) rotate(0 164.6601408277793 0)"><path d="M0 0 C68.12 0, 136.25 0, 329.32 0 M0 0 C90.86 0, 181.71 0, 329.32 0" stroke="#343a40" stroke-width="2" fill="none"/></g></g><mask/><g transform="translate(541.2615645334627 333.7004565614043) rotate(0 100.27796173095703 22.5)"><text x="0" y="0" font-family="Virgil, Segoe UI Emoji" font-size="36px" fill="#343a40" text-anchor="start" style="white-space: pre;" direction="ltr" dominant-baseline="text-before-edge">List item 3</text></g><g stroke-linecap="round"><g stroke-opacity="0.5" fill-opacity="0.5" transform="translate(516.4815780480521 665.0637519749205) rotate(0 164.6601408277793 0)"><path d="M0 0 C123.33 0, 246.66 0, 329.32 0 M0 0 C66.38 0, 132.75 0, 329.32 0" stroke="#343a40" stroke-width="2" fill="none"/></g></g><mask/><g stroke-linecap="round"><g transform="translate(779.2750020507749 344.32378232735505) rotate(0 11.00870236147773 9.505715507922957)"><path d="M0 0 C4.07 7.05, 8.14 14.09, 11.36 19.68 M0 0 C2.76 4.78, 5.52 9.56, 11.36 19.68 M11.36 19.68 C14.52 13.64, 17.69 7.6, 22.02 -0.67 M11.36 19.68 C14.69 13.32, 18.02 6.97, 22.02 -0.67" stroke="#343a40" stroke-width="4" fill="none"/></g></g><mask/><g transform="translate(586.0746554943062 405.11643336853103) rotate(0 110.08795928955078 22.5)"><text x="0" y="0" font-family="Virgil, Segoe UI Emoji" font-size="36px" fill="#343a40" text-anchor="start" style="white-space: pre;" direction="ltr" dominant-baseline="text-before-edge">List item 3.1</text></g><g transform="translate(585.6410407092403 466.93692002471016) rotate(0 118.02595520019531 22.5)"><text x="0" y="0" font-family="Virgil, Segoe UI Emoji" font-size="36px" fill="#343a40" text-anchor="start" style="white-space: pre;" direction="ltr" dominant-baseline="text-before-edge">List item 3.2</text></g><g stroke-linecap="round"><g transform="translate(555.8622416545666 407.4837119349902) rotate(0 0 63.62268253585739)"><path d="M0 0 C0 42.8, 0 85.61, 0 127.25 M0 0 C0 39.43, 0 78.85, 0 127.25" stroke="#343a40" stroke-width="4" fill="none"/></g><g transform="translate(555.8622416545666 407.4837119349902) rotate(0 0 63.62268253585739)"><path d="M0 127.25 L-6.34 113.65 L6.34 113.65 L0 127.25" stroke="none" stroke-width="0" fill="#343a40" fill-rule="evenodd"/><path d="M0 127.25 C-2.13 122.67, -4.26 118.1, -6.34 113.65 M0 127.25 C-1.96 123.03, -3.93 118.82, -6.34 113.65 M-6.34 113.65 C-2.12 113.65, 2.1 113.65, 6.34 113.65 M-6.34 113.65 C-3.11 113.65, 0.12 113.65, 6.34 113.65 M6.34 113.65 C4.99 116.55, 3.63 119.46, 0 127.25 M6.34 113.65 C5.03 116.46, 3.72 119.26, 0 127.25 M0 127.25 C0 127.25, 0 127.25, 0 127.25 M0 127.25 C0 127.25, 0 127.25, 0 127.25" stroke="#343a40" stroke-width="4" fill="none"/></g></g><mask/><g stroke-linecap="round"><g stroke-opacity="0.6" fill-opacity="0.6" transform="translate(619.7896387761973 61.34401413389503) rotate(0 53.989128709679335 32.397311616851255)"><path d="M0 0 C16.58 5.4, 81.46 21.6, 99.45 32.4 C117.45 43.2, 106.56 59.4, 107.98 64.79 M0 0 C16.58 5.4, 81.46 21.6, 99.45 32.4 C117.45 43.2, 106.56 59.4, 107.98 64.79" stroke="#343a40" stroke-width="4" fill="none"/></g><g stroke-opacity="0.6" fill-opacity="0.6" transform="translate(619.7896387761973 61.34401413389503) rotate(0 53.989128709679335 32.397311616851255)"><path d="M107.98 64.79 L103.4 50.51 L115.98 52.11 L107.98 64.79" stroke="none" stroke-width="0" fill="#343a40" fill-rule="evenodd"/><path d="M107.98 64.79 C106.59 60.44, 105.19 56.09, 103.4 50.51 M107.98 64.79 C106.7 60.8, 105.42 56.81, 103.4 50.51 M103.4 50.51 C106.24 50.87, 109.07 51.23, 115.98 52.11 M103.4 50.51 C107.44 51.02, 111.47 51.53, 115.98 52.11 M115.98 52.11 C114.01 55.24, 112.03 58.37, 107.98 64.79 M115.98 52.11 C113.22 56.49, 110.45 60.87, 107.98 64.79 M107.98 64.79 C107.98 64.79, 107.98 64.79, 107.98 64.79 M107.98 64.79 C107.98 64.79, 107.98 64.79, 107.98 64.79" stroke="#343a40" stroke-width="4" fill="none"/></g></g><mask/><g transform="translate(1016.1044075471921 23.661489394320483) rotate(0 74.77196502685547 22.5)"><text x="0" y="0" font-family="Virgil, Segoe UI Emoji" font-size="36px" fill="#343a40" text-anchor="start" style="white-space: pre;" direction="ltr" dominant-baseline="text-before-edge">Drilldown</text></g><g stroke-linecap="round" transform="translate(998.218414855002 148.3339270729108) rotate(0 138.31793826753187 311.4416194037121)"><path d="M0 0 C108.19 0, 216.38 0, 276.64 0 M0 0 C96.02 0, 192.03 0, 276.64 0 M276.64 0 C276.64 152.58, 276.64 305.17, 276.64 622.88 M276.64 0 C276.64 142.85, 276.64 285.7, 276.64 622.88 M276.64 622.88 C174.32 622.88, 72.01 622.88, 0 622.88 M276.64 622.88 C190.29 622.88, 103.94 622.88, 0 622.88 M0 622.88 C0 420.91, 0 218.93, 0 0 M0 622.88 C0 396.3, 0 169.72, 0 0" stroke="#1e1e1e" stroke-width="1" fill="none"/></g><g transform="translate(1028.2976632355635 176.83212146265203) rotate(0 78.1462365492161 18.921859517594484)"><text x="0" y="0" font-family="Virgil, Segoe UI Emoji" font-size="30.27497522815118px" fill="#343a40" text-anchor="start" style="white-space: pre;" direction="ltr" dominant-baseline="text-before-edge">List item 1</text></g><g stroke-linecap="round"><g transform="translate(998.0015163108658 236.9625930768433) rotate(0 138.53259799781102 -1.3537387426496252)"><path d="M0 0 C0.21 -0.64, 0.43 -1.28, 0.9 -2.71 M0 0 C0.21 -0.63, 0.42 -1.26, 0.9 -2.71 M0.9 -2.71 C66.8 -2.71, 132.69 -2.71, 277.07 -2.71 M0.9 -2.71 C95.58 -2.71, 190.27 -2.71, 277.07 -2.71" stroke="#343a40" stroke-width="1" fill="none"/></g></g><mask/><g transform="translate(1026.9439244929142 259.2622439051996) rotate(0 84.82372581804265 18.921859517594484)"><text x="0" y="0" font-family="Virgil, Segoe UI Emoji" font-size="30.27497522815118px" fill="#343a40" text-anchor="start" style="white-space: pre;" direction="ltr" dominant-baseline="text-before-edge">List item 2</text></g><g stroke-linecap="round"><g transform="translate(993.0378075878173 323.0026854997901) rotate(0 138.53259799781102 -1.3537387426496252)"><path d="M0 0 C0.28 -0.85, 0.56 -1.69, 0.9 -2.71 M0 0 C0.19 -0.58, 0.39 -1.16, 0.9 -2.71 M0.9 -2.71 C61.23 -2.71, 121.55 -2.71, 277.07 -2.71 M0.9 -2.71 C72.31 -2.71, 143.71 -2.71, 277.07 -2.71" stroke="#343a40" stroke-width="1" fill="none"/></g></g><mask/><g stroke-linecap="round"><g transform="translate(1224.7103769533203 268.9282829690666) rotate(270 7.939188083479507 6.861809316732689)"><path d="M0 0 C1.86 3.21, 3.71 6.43, 7.93 13.74 M0 0 C2.57 4.46, 5.15 8.91, 7.93 13.74 M7.93 13.74 C11.04 8.36, 14.14 2.99, 15.88 -0.02 M7.93 13.74 C9.8 10.51, 11.66 7.29, 15.88 -0.02" stroke="#343a40" stroke-width="4" fill="none"/></g></g><mask/><g transform="translate(1029.4257788544385 336.27369954199287) rotate(0 84.35433009306445 18.9218595175945)"><text x="0" y="0" font-family="Virgil, Segoe UI Emoji" font-size="30.274975228151185px" fill="#343a40" text-anchor="start" style="white-space: pre;" direction="ltr" dominant-baseline="text-before-edge">List item 3</text></g><g stroke-linecap="round"><g transform="translate(999.1296319297405 396.40417115618413) rotate(0 138.53259799781102 -1.3537387426496252)"><path d="M0 0 C0.3 -0.91, 0.61 -1.83, 0.9 -2.71 M0 0 C0.2 -0.59, 0.4 -1.19, 0.9 -2.71 M0.9 -2.71 C85.38 -2.71, 169.85 -2.71, 277.07 -2.71 M0.9 -2.71 C58.05 -2.71, 115.2 -2.71, 277.07 -2.71" stroke="#343a40" stroke-width="1" fill="none"/></g></g><mask/><g transform="translate(1028.072040111789 418.70382198454047) rotate(0 83.7335207386796 18.9218595175945)"><text x="0" y="0" font-family="Virgil, Segoe UI Emoji" font-size="30.27497522815118px" fill="#343a40" text-anchor="start" style="white-space: pre;" direction="ltr" dominant-baseline="text-before-edge">List item 4</text></g><g stroke-linecap="round"><g transform="translate(994.165923206692 482.44426357913096) rotate(0 138.53259799781102 -1.3537387426496252)"><path d="M0 0 C0.35 -1.06, 0.71 -2.12, 0.9 -2.71 M0 0 C0.18 -0.55, 0.37 -1.1, 0.9 -2.71 M0.9 -2.71 C93.43 -2.71, 185.95 -2.71, 277.07 -2.71 M0.9 -2.71 C81.95 -2.71, 163 -2.71, 277.07 -2.71" stroke="#343a40" stroke-width="1" fill="none"/></g></g><mask/><g stroke-linecap="round"><g transform="translate(1223.8078844582205 430.47443959192117) rotate(270 7.939188083479507 6.861809316732689)"><path d="M0 0 C1.65 2.86, 3.3 5.72, 7.93 13.74 M0 0 C2.76 4.78, 5.52 9.56, 7.93 13.74 M7.93 13.74 C10.35 9.56, 12.76 5.38, 15.88 -0.02 M7.93 13.74 C10.49 9.31, 13.05 4.88, 15.88 -0.02" stroke="#343a40" stroke-width="4" fill="none"/></g></g><mask/><g transform="translate(1026.943924492914 495.71527762133326) rotate(0 83.40040305466061 18.9218595175945)"><text x="0" y="0" font-family="Virgil, Segoe UI Emoji" font-size="30.274975228151177px" fill="#343a40" text-anchor="start" style="white-space: pre;" direction="ltr" dominant-baseline="text-before-edge">List item 5</text></g><g stroke-linecap="round"><g transform="translate(996.647777568216 555.8457492355243) rotate(0 138.53259799781102 -1.3537387426496252)"><path d="M0 0 C0.32 -0.95, 0.64 -1.91, 0.9 -2.71 M0 0 C0.29 -0.87, 0.58 -1.75, 0.9 -2.71 M0.9 -2.71 C66.46 -2.71, 132.02 -2.71, 277.07 -2.71 M0.9 -2.71 C80.81 -2.71, 160.72 -2.71, 277.07 -2.71" stroke="#343a40" stroke-width="1" fill="none"/></g></g><mask/><g transform="translate(1021.4674485613314 568.8171697244128) rotate(0 83.7335207386796 18.9218595175945)"><text x="0" y="0" font-family="Virgil, Segoe UI Emoji" font-size="30.27497522815118px" fill="#343a40" text-anchor="start" style="white-space: pre;" direction="ltr" dominant-baseline="text-before-edge">List item 6</text></g><g stroke-linecap="round"><g transform="translate(997.5502700633158 628.0451488435045) rotate(0 138.53259799781102 -1.3537387426496252)"><path d="M0 0 C0.26 -0.78, 0.52 -1.55, 0.9 -2.71 M0 0 C0.26 -0.79, 0.53 -1.58, 0.9 -2.71 M0.9 -2.71 C87.61 -2.71, 174.31 -2.71, 277.07 -2.71 M0.9 -2.71 C62.27 -2.71, 123.64 -2.71, 277.07 -2.71" stroke="#343a40" stroke-width="1" fill="none"/></g></g><mask/><g stroke-linecap="round"><g transform="translate(1218.392929487622 573.0682538176808) rotate(270 7.939188083479507 6.861809316732717)"><path d="M0 0 C1.84 3.18, 3.67 6.36, 7.93 13.74 M0 0 C2.45 4.25, 4.91 8.5, 7.93 13.74 M7.93 13.74 C10.04 10.1, 12.14 6.46, 15.88 -0.02 M7.93 13.74 C9.76 10.59, 11.58 7.43, 15.88 -0.02" stroke="#343a40" stroke-width="4" fill="none"/></g></g><mask/><g transform="translate(1032.3588794635125 643.7240468176918) rotate(0 82.18906835499303 18.9218595175945)"><text x="0" y="0" font-family="Virgil, Segoe UI Emoji" font-size="30.27497522815118px" fill="#343a40" text-anchor="start" style="white-space: pre;" direction="ltr" dominant-baseline="text-before-edge">List item 7</text></g><g stroke-linecap="round"><g transform="translate(1002.0627325388145 703.8545184318829) rotate(0 138.53259799781102 -1.3537387426496252)"><path d="M0 0 C0.32 -0.96, 0.64 -1.92, 0.9 -2.71 M0 0 C0.34 -1.02, 0.68 -2.05, 0.9 -2.71 M0.9 -2.71 C67.8 -2.71, 134.7 -2.71, 277.07 -2.71 M0.9 -2.71 C60.14 -2.71, 119.38 -2.71, 277.07 -2.71" stroke="#343a40" stroke-width="1" fill="none"/></g></g><mask/><g transform="translate(1031.4563869684125 715.0209539305721) rotate(0 84.35433009306445 18.9218595175945)"><text x="0" y="0" font-family="Virgil, Segoe UI Emoji" font-size="30.274975228151185px" fill="#343a40" text-anchor="start" style="white-space: pre;" direction="ltr" dominant-baseline="text-before-edge">List item 3</text></g><g stroke-linecap="round"><g transform="translate(1001.1602400437146 776.0539180398629) rotate(0 138.53259799781102 -1.3537387426496252)"><path d="M0 0 C0.33 -1, 0.67 -2.01, 0.9 -2.71 M0 0 C0.27 -0.8, 0.53 -1.59, 0.9 -2.71 M0.9 -2.71 C71.63 -2.71, 142.35 -2.71, 277.07 -2.71 M0.9 -2.71 C58.25 -2.71, 115.6 -2.71, 277.07 -2.71" stroke="#343a40" stroke-width="1" fill="none"/></g></g><mask/><g stroke-linecap="round"><g stroke-opacity="0.6" fill-opacity="0.6" transform="translate(1106.224554828757 73.72523521730045) rotate(0 44.33316326516501 28.98706828876169)"><path d="M0 0 C14.78 1.71, 73.89 0.57, 88.67 10.23 C103.44 19.89, 88.67 50.02, 88.67 57.97 M0 0 C14.78 1.71, 73.89 0.57, 88.67 10.23 C103.44 19.89, 88.67 50.02, 88.67 57.97" stroke="#343a40" stroke-width="4" fill="none"/></g><g stroke-opacity="0.6" fill-opacity="0.6" transform="translate(1106.224554828757 73.72523521730045) rotate(0 44.33316326516501 28.98706828876169)"><path d="M88.67 57.97 L85.58 43.3 L97.92 46.17 L88.67 57.97" stroke="none" stroke-width="0" fill="#343a40" fill-rule="evenodd"/><path d="M88.67 57.97 C87.51 52.49, 86.35 47, 85.58 43.3 M88.67 57.97 C87.82 53.97, 86.98 49.97, 85.58 43.3 M85.58 43.3 C88.06 43.87, 90.54 44.45, 97.92 46.17 M85.58 43.3 C90.27 44.39, 94.96 45.48, 97.92 46.17 M97.92 46.17 C95.19 49.66, 92.45 53.15, 88.67 57.97 M97.92 46.17 C95.29 49.53, 92.66 52.88, 88.67 57.97 M88.67 57.97 C88.67 57.97, 88.67 57.97, 88.67 57.97 M88.67 57.97 C88.67 57.97, 88.67 57.97, 88.67 57.97" stroke="#343a40" stroke-width="4" fill="none"/></g></g><mask/></svg>